<svg width="48" height="48" viewBox="0 0 48 48" fill="none" xmlns="http://www.w3.org/2000/svg">
<path d="M45.3333 33.3333C42 33.3333 38.8 32.8 35.8133 31.8133C35.3445 31.664 34.8439 31.6446 34.3649 31.7574C33.8859 31.8701 33.4464 32.1106 33.0933 32.4533L27.2267 38.32C19.6565 34.4699 13.5034 28.3168 9.65333 20.7467L15.52 14.8533C15.8732 14.5182 16.1235 14.0894 16.2416 13.6171C16.3597 13.1447 16.3406 12.6485 16.1867 12.1867C15.1751 9.11482 14.6619 5.90079 14.6667 2.66667C14.6667 1.2 13.4667 0 12 0H2.66667C1.2 0 0 1.2 0 2.66667C0 27.7067 20.2933 48 45.3333 48C46.8 48 48 46.8 48 45.3333V36C48 34.5333 46.8 33.3333 45.3333 33.3333ZM42.6667 24H48C48 17.6348 45.4714 11.5303 40.9706 7.02944C36.4697 2.52856 30.3652 0 24 0V5.33333C34.32 5.33333 42.6667 13.68 42.6667 24ZM32 24H37.3333C37.3333 16.64 31.36 10.6667 24 10.6667V16C28.4267 16 32 19.5733 32 24Z" fill="white"/>
</svg>
